# xmcd
#
# Track frame offsets:
#	183
#	19883
#	38703
#	57320
#	76530
#	99500
#	118983
#	137400
#	160303
#	184630
#	205435
#	222718
#	247680
#	275868
#
# Disc length: 4005 seconds
#
# Revision: 0
# Processed by: cddbd v1.4PL0 Copyright (c) Steve Scherf et al.
# Submitted via: EasyCDDAExtractor 4.6.9.1
#
DISCID=c60fa30e
DTITLE=Tongue 'n' Cheek
DYEAR=1990
DGENRE=Dance
TTITLE0=This Is Tongue 'n' Cheek
TTITLE1=Forget Me Nots
TTITLE2=Nobody
TTITLE3=So Fine
TTITLE4=Street Thang
TTITLE5=Why?
TTITLE6=Tomorrow
TTITLE7=Don't Stop The Love
TTITLE8=Cushion Of Love
TTITLE9=It's A Crime
TTITLE10=Encore
TTITLE11=Nobody - Blue mix
TTITLE12=Tomorrow - warehouse mix
TTITLE13=Encore - 12" version
EXTD=
EXTT0=
EXTT1=
EXTT2=
EXTT3=
EXTT4=
EXTT5=
EXTT6=
EXTT7=
EXTT8=
EXTT9=
EXTT10=
EXTT11=
EXTT12=
EXTT13=
PLAYORDER=
